<?xml version="1.0" standalone="no"?>
<!DOCTYPE svg PUBLIC "-//W3C//DTD SVG 20010904//EN"
 "http://www.w3.org/TR/2001/REC-SVG-20010904/DTD/svg10.dtd">
<svg version="1.0" xmlns="http://www.w3.org/2000/svg"
 width="115.000000pt" height="115.000000pt" viewBox="0 0 115.000000 115.000000"
 preserveAspectRatio="xMidYMid meet">
<metadata>
Created by potrace 1.11, written by Peter Selinger 2001-2013
</metadata>
<g transform="translate(0.000000,115.000000) scale(0.100000,-0.100000)"
fill="#000000" stroke="none">
<path d="M390 1010 c-115 -42 -209 -130 -262 -245 -20 -44 -23 -66 -23 -175 0
-122 1 -127 33 -193 43 -88 121 -166 209 -209 66 -32 72 -33 193 -33 121 0
127 1 193 33 126 62 229 198 244 322 l6 50 48 0 c48 0 49 1 49 30 0 29 -1 30
-49 30 l-48 0 -6 50 c-15 125 -118 260 -244 321 -62 31 -77 34 -178 36 -91 3
-120 0 -165 -17z m317 -92 c106 -39 213 -176 213 -273 0 -23 -4 -25 -50 -25
-49 0 -50 -1 -50 -30 0 -29 1 -30 50 -30 59 0 62 -8 28 -97 -29 -79 -112 -162
-191 -191 -78 -30 -186 -30 -264 0 -79 29 -162 112 -191 191 -30 78 -30 186 0
264 28 77 112 162 188 191 76 29 189 29 267 0z"/>
<path d="M537 793 c-4 -3 -7 -21 -7 -39 0 -28 4 -35 27 -40 14 -4 33 -2 42 3
20 13 26 50 11 69 -13 14 -61 19 -73 7z"/>
<path d="M542 692 c-9 -7 -12 -44 -10 -153 l3 -144 40 0 40 0 3 139 c2 93 -1
143 -9 152 -13 15 -47 18 -67 6z"/>
</g>
</svg>
